<?xml version="1.0" standalone="no"?>
<!DOCTYPE svg PUBLIC "-//W3C//DTD SVG 20010904//EN"
 "http://www.w3.org/TR/2001/REC-SVG-20010904/DTD/svg10.dtd">
<svg version="1.0" xmlns="http://www.w3.org/2000/svg"
 width="920.000000pt" height="691.000000pt" viewBox="0 0 920.000000 691.000000"
 preserveAspectRatio="xMidYMid meet">

<g transform="translate(0.000000,691.000000) scale(0.100000,-0.100000)"
fill="#000000" stroke="none">
<path d="M3643 6708 c-6 -7 -13 -37 -17 -67 -10 -76 -32 -114 -147 -248 -211
-248 -278 -396 -250 -554 30 -170 195 -379 300 -379 61 0 111 57 111 127 0 47
-15 75 -78 151 -122 148 -110 222 78 475 54 73 110 157 125 187 52 104 43 229
-22 294 -28 28 -83 36 -100 14z"/>
<path d="M4426 6613 c-38 -114 -74 -169 -185 -286 -141 -149 -168 -213 -158
-381 6 -105 29 -181 85 -283 22 -40 48 -95 57 -122 20 -63 49 -100 90 -117 43
-18 96 -3 129 37 61 73 49 132 -70 352 -32 58 -38 79 -42 147 -2 43 -2 89 1
103 4 13 34 55 68 93 121 137 189 265 189 359 0 82 -59 175 -111 175 -25 0
-29 -6 -53 -77z"/>
<path d="M3820 5354 c-96 -7 -321 -17 -498 -23 -178 -6 -345 -13 -370 -16
-288 -38 -405 -70 -518 -144 -122 -79 -184 -178 -184 -296 0 -39 -4 -106 -9
-150 -5 -44 -12 -289 -16 -545 -3 -256 -10 -625 -15 -820 -5 -195 -8 -393 -5
-440 15 -330 15 -759 0 -990 -24 -337 -17 -586 19 -725 34 -133 85 -230 163
-315 78 -84 133 -125 240 -179 158 -80 386 -137 643 -160 339 -31 1279 -55
1562 -40 501 27 835 160 952 381 16 29 44 77 63 106 47 71 74 152 81 234 l5
68 36 6 c139 23 324 81 458 145 183 87 380 250 501 414 242 328 340 818 261
1299 -34 207 -69 318 -155 486 -133 262 -349 448 -656 566 -120 47 -314 93
-420 101 l-88 6 0 131 c0 72 -5 181 -11 241 -6 61 -12 142 -13 180 -4 127 -79
228 -224 304 -123 64 -278 97 -532 116 -47 4 -229 20 -405 36 -377 35 -624 42
-865 23z m442 -189 c101 -9 293 -29 428 -46 135 -16 286 -34 335 -40 105 -12
338 -49 344 -55 9 -9 -58 -81 -120 -129 -35 -27 -95 -80 -133 -118 -65 -63
-73 -68 -125 -74 l-56 -6 128 123 c125 120 145 150 103 158 -12 3 -54 -31
-130 -105 -173 -170 -192 -183 -260 -183 -32 0 -56 4 -54 8 2 5 57 57 123 117
117 105 144 145 105 153 -15 2 -56 -31 -245 -203 -73 -65 -86 -73 -128 -76
-26 -2 -47 -1 -47 2 0 3 36 32 80 63 50 37 80 65 80 76 0 47 -34 31 -184 -88
-56 -45 -76 -55 -112 -57 -24 -2 -44 0 -44 4 0 5 27 30 60 56 57 45 71 73 44
82 -7 2 -51 -28 -99 -67 -48 -38 -94 -71 -101 -71 -8 -1 -21 -1 -29 -1 -59 0
-59 -1 -15 54 36 46 39 53 26 67 -14 13 -22 7 -78 -52 l-63 -67 -88 0 c-48 0
-87 3 -87 7 0 4 30 38 67 75 63 64 66 69 51 85 -16 15 -23 11 -106 -70 -97
-96 -97 -96 -227 -79 l-50 7 85 65 c84 65 104 92 76 103 -13 5 -153 -90 -214
-147 -19 -16 -36 -21 -83 -21 -32 0 -58 3 -56 6 1 3 39 39 85 79 66 58 80 75
71 86 -6 8 -16 14 -21 14 -6 0 -59 -40 -119 -90 l-109 -90 -62 0 -63 0 103
103 c56 56 102 107 102 114 0 6 -7 14 -15 17 -11 4 -57 -34 -143 -114 l-127
-120 -55 1 c-113 2 -114 1 15 129 108 108 136 150 99 150 -9 0 -79 -61 -157
-135 l-141 -136 -60 7 c-34 4 -62 8 -63 9 -2 1 62 66 142 145 136 136 168 180
128 180 -9 0 -62 -44 -117 -97 -56 -54 -119 -114 -142 -135 -23 -20 -51 -48
-63 -63 -21 -27 -22 -28 -78 -16 -31 6 -59 14 -62 17 -8 8 157 167 242 233 65
51 78 73 46 79 -17 3 -122 -80 -253 -201 -78 -72 -101 -88 -114 -81 -9 6 -18
16 -20 22 -2 7 52 69 120 137 l123 125 100 19 c55 11 183 27 285 36 102 9 219
20 260 25 138 14 667 11 862 -5z m-1700 -203 c-53 -54 -98 -94 -100 -90 -2 4
18 38 45 74 32 44 63 74 93 90 25 12 48 23 52 24 4 0 -37 -44 -90 -98z m2933
20 c56 -28 56 -29 -21 -104 -45 -44 -78 -84 -82 -102 -7 -27 -14 -32 -53 -38
-95 -16 -189 -24 -189 -17 0 4 32 36 72 71 137 120 177 160 190 189 14 31 24
31 83 1z m105 -107 c0 -32 -58 -88 -107 -103 -20 -6 -38 -10 -40 -8 -5 4 129
136 139 136 4 0 8 -11 8 -25z m-3073 -310 c119 -46 294 -68 628 -80 143 -5
191 -7 485 -20 69 -4 186 -10 260 -15 279 -20 1057 -9 1255 16 l50 7 -73 -78
c-83 -87 -132 -158 -132 -192 0 -41 27 -25 92 55 181 223 178 220 238 227 30
4 95 15 144 26 49 10 91 18 92 16 1 -1 -40 -51 -92 -112 -52 -60 -134 -166
-182 -234 -48 -68 -115 -161 -148 -206 -90 -120 -117 -166 -106 -177 27 -27
91 45 252 281 102 149 256 369 323 461 l18 25 -5 -45 c-3 -25 -8 -110 -12
-190 l-7 -145 -68 -96 c-123 -174 -354 -523 -384 -581 -21 -40 -27 -60 -19
-68 14 -14 108 112 304 408 84 128 154 231 155 230 2 -2 6 -59 10 -128 l6
-125 -131 -174 c-73 -96 -157 -206 -188 -245 -81 -102 -172 -237 -166 -247 3
-5 11 -9 19 -9 27 0 155 154 305 369 l155 222 9 -174 8 -174 -51 -63 c-28 -35
-106 -141 -173 -236 l-122 -173 -31 57 c-90 168 -450 442 -581 442 -25 0 -54
-5 -66 -11 -11 -6 -22 -9 -24 -6 -3 2 7 44 21 92 48 168 27 327 -52 383 -92
66 -231 34 -316 -71 -57 -69 -105 -181 -122 -279 -3 -21 -33 -99 -66 -175
-101 -230 -169 -400 -226 -563 -57 -166 -115 -310 -123 -310 -3 0 -11 22 -17
50 -15 64 -53 128 -118 199 -73 80 -95 111 -95 134 0 12 44 64 115 134 139
138 169 187 169 283 0 152 -114 242 -249 196 -88 -29 -287 -170 -406 -286
-202 -198 -220 -419 -53 -671 61 -94 203 -235 274 -274 48 -26 65 -30 135 -30
65 0 87 4 119 23 l39 23 -7 -23 c-28 -101 -26 -221 5 -281 47 -91 143 -132
243 -103 145 43 227 163 331 491 32 99 93 272 137 385 44 113 98 258 120 322
l40 118 30 -62 c23 -49 55 -88 144 -176 81 -80 114 -119 114 -136 0 -26 -19
-53 -102 -145 -32 -35 -73 -93 -90 -129 -119 -241 99 -464 339 -346 101 49
269 237 338 379 42 86 54 139 55 230 l1 70 145 215 c80 118 152 222 160 230
12 12 14 -15 14 -206 l0 -221 -179 -240 c-203 -272 -294 -402 -341 -486 -89
-160 65 -3 230 234 155 223 281 399 286 399 2 0 4 -60 4 -134 l0 -134 -36 -43
c-19 -23 -70 -94 -113 -158 -42 -64 -133 -190 -201 -281 -170 -227 -330 -472
-330 -505 0 -3 6 -5 14 -5 18 0 59 51 151 185 38 55 130 183 205 285 75 102
174 240 219 308 46 67 86 122 89 122 4 0 7 -78 7 -173 l0 -172 -116 -155 c-64
-85 -201 -263 -303 -395 -194 -249 -349 -471 -340 -487 8 -13 15 -6 91 84 96
113 216 268 437 563 103 138 198 264 211 280 l24 30 0 -193 1 -193 -52 -77
c-100 -148 -203 -288 -337 -455 -96 -121 -131 -171 -123 -179 33 -33 251 214
448 511 l69 104 12 -78 c14 -94 19 -84 -124 -276 -88 -119 -105 -149 -84 -149
13 0 174 171 196 208 25 42 35 41 28 -5 -42 -263 -295 -397 -826 -434 -219
-16 -1090 3 -1477 32 -364 26 -625 106 -751 229 -64 63 -94 115 -122 215 -28
103 -34 402 -13 721 14 207 15 293 6 514 -13 336 -13 731 0 1142 6 185 7 457
3 636 -5 171 -5 312 -1 312 4 0 25 -7 45 -15z m3397 -434 c2 -3 -10 -16 -25
-29 l-29 -24 0 30 c0 16 3 31 6 34 6 7 43 -2 48 -11z m106 -31 c8 -5 12 -11
10 -13 -32 -28 -154 -117 -161 -117 -24 0 -4 39 43 87 51 52 78 62 108 43z
m293 -116 c295 -146 482 -385 565 -724 86 -353 63 -732 -63 -1024 -107 -249
-301 -451 -547 -572 -56 -27 -58 -28 -72 -9 -13 18 -17 17 -92 -32 -74 -48
-134 -73 -178 -73 -12 0 3 17 45 50 72 57 99 86 99 106 0 23 -35 16 -61 -12
-13 -14 -43 -39 -66 -56 l-43 -29 0 30 c0 25 15 43 101 116 55 48 98 92 96 98
-8 26 -36 14 -112 -48 -44 -35 -83 -65 -87 -65 -4 0 -5 12 -4 28 2 19 16 37
47 60 24 18 80 61 124 96 44 34 107 77 140 96 155 85 291 224 366 373 27 55
49 107 49 117 0 12 22 33 59 57 33 21 60 44 60 51 1 21 -31 26 -60 9 -28 -16
-44 -11 -31 9 4 6 28 23 55 38 26 15 47 32 47 37 0 18 -28 20 -59 5 -60 -31
-56 -10 9 53 28 27 50 56 50 64 0 31 -22 29 -50 -4 -15 -19 -31 -32 -34 -29
-3 3 -8 24 -11 45 -5 39 -3 41 50 85 30 24 55 50 55 56 0 26 -22 24 -62 -5
-51 -37 -58 -38 -58 -6 0 19 13 33 55 61 30 20 55 41 55 46 0 20 -33 18 -75
-5 -55 -31 -68 -19 -20 18 77 58 86 117 10 65 -60 -41 -76 -38 -33 8 84 88
132 172 97 172 -6 0 -42 -30 -80 -66 l-68 -67 -11 27 c-5 15 -10 31 -10 35 0
5 30 36 66 69 57 52 65 64 54 77 -7 8 -15 15 -19 15 -4 0 -36 -22 -71 -49 -61
-45 -66 -47 -78 -30 -11 16 -7 23 32 59 48 45 64 76 48 92 -7 7 -28 -4 -67
-37 -30 -26 -57 -46 -58 -44 -1 2 -10 14 -20 25 -18 22 -18 23 32 69 49 46 63
77 41 90 -6 4 -33 -14 -61 -39 -58 -52 -68 -55 -95 -25 -18 20 -17 21 29 60
26 22 47 47 47 54 0 30 -24 25 -78 -18 l-57 -44 -32 21 -32 22 50 45 c35 32
48 50 43 62 -8 21 -33 22 -41 2 -3 -9 -25 -29 -49 -46 -41 -28 -47 -29 -79
-18 -20 7 -34 16 -33 20 2 4 31 30 66 59 58 48 73 72 54 84 -7 4 -91 -50 -155
-101 -24 -18 -32 -20 -62 -10 -41 12 -44 22 -12 38 12 6 49 39 82 73 33 35 69
68 80 74 11 6 17 13 13 17 -13 13 -49 -7 -112 -60 -89 -76 -160 -116 -187
-107 -19 7 -11 17 70 91 104 95 138 138 124 152 -10 10 -130 -79 -182 -135
-30 -32 -41 -33 -41 -3 1 15 20 37 66 72 35 28 83 69 106 92 l41 42 71 -26
c39 -14 111 -45 159 -69z m-1928 -361 c-10 -33 -24 -57 -41 -68 -33 -22 -38
-16 -24 33 6 26 22 50 42 66 18 14 34 24 35 22 2 -1 -4 -25 -12 -53z m1548
-39 c302 -152 452 -395 464 -754 9 -249 -52 -390 -228 -531 -63 -51 -263 -158
-275 -147 -3 4 -8 261 -10 570 -2 310 -6 636 -8 726 -2 89 -1 162 1 162 2 0
27 -12 56 -26z m-1593 -93 c0 -9 -44 -41 -56 -41 -4 0 3 11 16 25 24 26 40 32
40 16z m-52 -137 c-20 -45 -55 -63 -43 -21 7 22 44 61 52 54 2 -3 -2 -17 -9
-33z m-50 -131 c-14 -33 -38 -63 -50 -63 -11 0 19 72 35 82 22 14 27 8 15 -19z
m-878 -86 c-91 -87 -170 -153 -170 -140 0 16 220 213 238 213 4 0 -27 -33 -68
-73z m1400 43 c0 -14 -14 -12 -28 2 -19 19 -14 30 8 18 11 -6 20 -15 20 -20z
m58 -42 c16 -16 15 -28 -2 -28 -17 0 -38 24 -29 33 9 10 17 9 31 -5z m-647
-104 c-16 -42 -34 -63 -53 -64 -10 0 21 71 40 93 26 29 31 19 13 -29z m724 26
c21 -23 12 -39 -13 -24 -19 12 -29 44 -14 44 5 0 17 -9 27 -20z m74 -74 c8
-10 8 -16 -3 -25 -10 -9 -16 -8 -26 3 -12 15 -6 36 9 36 5 0 14 -6 20 -14z
m-1795 -115 c-52 -47 -58 -22 -8 30 32 33 40 37 43 23 2 -11 -12 -32 -35 -53z
m1861 19 c21 -40 19 -53 -10 -80 l-25 -23 0 26 c0 14 -5 38 -10 53 -7 19 -7
30 1 40 17 21 27 17 44 -16z m-945 -63 c-31 -83 -56 -88 -29 -6 12 34 39 73
46 65 2 -2 -6 -29 -17 -59z m-894 -32 c-15 -23 -46 -32 -46 -14 0 7 10 23 22
36 26 28 45 10 24 -22z m1850 -84 c-24 -45 -109 -144 -158 -182 l-43 -34 33
42 c19 24 38 45 43 49 5 3 19 24 30 47 29 56 103 141 107 123 2 -8 -4 -28 -12
-45z m-1812 13 c4 -9 1 -23 -6 -31 -10 -13 -14 -13 -25 3 -9 13 -10 21 -2 31
15 17 26 16 33 -3z m62 -110 c-6 -16 -8 -16 -23 -2 -9 10 -13 23 -9 34 6 16 8
16 23 2 9 -10 13 -23 9 -34z m717 16 c-3 -11 -10 -23 -16 -27 -7 -4 -8 0 -4
11 4 10 7 22 7 27 0 5 4 9 9 9 5 0 7 -9 4 -20z m-657 -61 c10 -17 -13 -36 -27
-22 -12 12 -4 33 11 33 5 0 12 -5 16 -11z m49 -77 c-8 -8 -25 10 -19 20 4 6 9
5 15 -3 4 -7 6 -15 4 -17z m546 -15 c-10 -9 -11 -8 -5 6 3 10 9 15 12 12 3 -3
0 -11 -7 -18z m-47 -171 c-10 -31 -30 -68 -46 -83 -36 -34 -35 -20 1 56 50
106 74 120 45 27z m2030 -421 c-10 -8 -26 -14 -34 -15 -8 0 -2 9 15 20 33 22
49 18 19 -5z"/>
</g>
</svg>
